<svg width="14.689789" height="14.077515" viewBox="0 0 14.6898 14.0775" fill="none" xmlns="http://www.w3.org/2000/svg" xmlns:xlink="http://www.w3.org/1999/xlink">
	<desc>
			Created with Pixso.
	</desc>
	<defs/>
	<path id="Vector" d="M14.65 5.31C14.55 5.02 14.29 4.81 13.97 4.78L9.73 4.39L8.06 0.47C7.93 0.18 7.65 0 7.34 0C7.03 0 6.75 0.18 6.62 0.47L4.95 4.39L0.7 4.78C0.39 4.81 0.13 5.02 0.03 5.31C-0.06 5.61 0.03 5.94 0.26 6.14L3.47 8.95L2.52 13.12C2.45 13.42 2.57 13.74 2.83 13.92C2.96 14.02 3.12 14.07 3.28 14.07C3.42 14.07 3.56 14.04 3.68 13.96L7.34 11.78L11 13.96C11.26 14.12 11.6 14.11 11.85 13.92C12.11 13.74 12.23 13.42 12.16 13.12L11.21 8.95L14.42 6.14C14.65 5.94 14.74 5.61 14.65 5.31Z" fill="#FFC107" fill-opacity="1.000000" fill-rule="nonzero"/>
</svg>
